<svg id="icon-vkontakte" width="23" height="16" viewBox="0 0 30 33" xmlns="http://www.w3.org/2000/svg">
  <path
    d="M0.0914307 10.4899C0.0914307 9.63485 0.643326 9.17381 1.74712 9.10674L6.00052 9.13189C6.28599 9.13189 6.47629 9.25763 6.57145 9.50911C7.00916 10.7665 7.4992 11.8521 8.04158 12.7658C8.58397 13.6795 9.29287 14.7315 10.1683 15.9218C10.2444 16.0727 10.3681 16.1482 10.5394 16.1482C10.6726 16.1482 10.7773 16.0895 10.8534 15.9721L10.939 15.6955L10.9676 11.3449C10.9676 11.0431 10.8867 10.842 10.7249 10.7414C10.5632 10.6408 10.2634 10.5653 9.82573 10.515C9.48318 10.4647 9.3119 10.2803 9.3119 9.96177C9.3119 9.89471 9.32141 9.84442 9.34044 9.81089C9.74009 8.72114 10.8819 8.17627 12.766 8.17627L14.3646 8.15112C15.0878 8.15112 15.6872 8.31039 16.163 8.62893C16.6388 8.94747 16.8767 9.45043 16.8767 10.1378V15.8464C17.0099 15.9302 17.1336 15.9721 17.2478 15.9721C17.5332 15.9721 17.7806 15.8212 17.99 15.5195C20.0834 12.9376 21.2157 11.2108 21.387 10.339C21.387 10.3222 21.406 10.2803 21.4441 10.2133C21.5773 9.96177 21.7962 9.74383 22.1007 9.55941C22.4051 9.37499 22.6716 9.24925 22.9 9.18219C22.9761 9.14866 23.0617 9.13189 23.1569 9.13189H27.5816L27.867 9.15704C28.2476 9.15704 28.5426 9.31631 28.752 9.63485C28.8281 9.73544 28.8804 9.84442 28.909 9.96177C28.9375 10.0791 28.9565 10.1965 28.966 10.3138C28.9756 10.4312 28.9803 10.4983 28.9803 10.515V10.6911C28.8471 11.3784 28.5093 12.1119 27.9669 12.8915C27.4245 13.6711 26.7347 14.5135 25.8973 15.4189C25.06 16.3242 24.5366 16.9194 24.3273 17.2044C24.156 17.4056 24.0704 17.59 24.0704 17.7576C24.0704 17.8918 24.1465 18.0426 24.2987 18.2103L28.4665 22.8375C28.6949 23.1058 28.809 23.3992 28.809 23.7177C28.809 24.1033 28.6378 24.4218 28.2952 24.6733C27.9527 24.9248 27.5435 25.0673 27.0677 25.1008L26.5824 25.126H22.2434C22.2244 25.126 22.1863 25.1302 22.1292 25.1385C22.0721 25.1469 22.034 25.1511 22.015 25.1511C21.5963 25.1511 21.2062 24.9919 20.8446 24.6733C20.7114 24.5392 19.8169 23.55 18.1613 21.7059C18.0661 21.5885 17.9329 21.4795 17.7616 21.3789C17.6855 21.6472 17.5856 22.0328 17.4619 22.5357C17.3382 23.0387 17.2478 23.3992 17.1907 23.6171L17.105 24.0446C16.9147 24.6314 16.5151 24.9835 15.9061 25.1008L15.5065 25.126H12.7089C11.1293 25.126 9.55454 24.4889 7.98449 23.2147C6.41444 21.9406 5.0014 20.2934 3.74536 18.2732C2.48932 16.2529 1.31892 13.9016 0.234162 11.2192C0.139008 11.0012 0.0914307 10.7581 0.0914307 10.4899ZM17.2478 17.0032C16.8481 17.0032 16.4865 16.9068 16.163 16.714C15.8395 16.5212 15.6777 16.2571 15.6777 15.9218V10.1378C15.6777 9.8025 15.5826 9.5636 15.3923 9.42109C15.202 9.27859 14.8689 9.20734 14.3931 9.20734L12.766 9.25763C11.9477 9.25763 11.3292 9.38337 10.9105 9.63485C11.7479 9.98692 12.1665 10.5569 12.1665 11.3449V15.7709C12.1285 16.1901 11.9382 16.538 11.5956 16.8146C11.253 17.0912 10.8724 17.2295 10.4538 17.2295C9.88282 17.2295 9.44511 16.9864 9.14062 16.5002C7.65621 14.5219 6.55242 12.6442 5.82924 10.8671L5.57233 10.2133L1.77566 10.1881C1.52826 10.1881 1.39029 10.2007 1.36174 10.2258C1.3332 10.251 1.31892 10.3222 1.31892 10.4396C1.31892 10.5905 1.33795 10.7497 1.37602 10.9174L1.97549 12.3257C3.57408 15.9637 5.31065 18.8306 7.18519 20.9263C9.05974 23.0219 10.901 24.0698 12.7089 24.0698H15.5635C15.6777 24.0698 15.7634 24.0404 15.8205 23.9817C15.8776 23.9231 15.9251 23.8099 15.9632 23.6422L16.0203 23.3908L16.5627 21.1778C16.7149 20.876 16.8481 20.6748 16.9623 20.5742C17.1717 20.3898 17.4191 20.2976 17.7045 20.2976C18.1613 20.2976 18.6275 20.5407 19.1033 21.0269L21.5297 23.7428C21.682 23.9608 21.8437 24.0698 22.015 24.0698H26.7252C27.2961 24.0698 27.5816 23.944 27.5816 23.6925C27.5816 23.6087 27.553 23.5249 27.4959 23.4411L23.3567 18.8893C23.0332 18.5372 22.8714 18.16 22.8714 17.7576C22.8714 17.3553 23.0237 16.9697 23.3281 16.6008C23.5755 16.2655 24.0561 15.7081 24.7697 14.9285C25.4834 14.1489 26.1067 13.4196 26.6395 12.7406C27.1724 12.0616 27.5245 11.4455 27.6957 10.8922L27.7814 10.5653C27.7623 10.5318 27.7528 10.4773 27.7528 10.4019C27.7528 10.3264 27.7433 10.2635 27.7243 10.2133H23.2425C22.957 10.3138 22.7287 10.4647 22.5574 10.6659L22.3861 11.1437C21.9103 12.3005 20.6638 14.086 18.6465 16.5002C18.2469 16.8355 17.7806 17.0032 17.2478 17.0032Z" />
</svg>
