<svg id="icon-instagram" width="30" height="33" viewBox="0 0 30 33" xmlns="http://www.w3.org/2000/svg">
  <path
    d="M15.4775 6.08984C17.3942 6.08984 18.959 6.1123 20.1719 6.15723C21.2051 6.20215 22.126 6.38184 22.9346 6.69629C23.7132 6.99577 24.387 7.43001 24.9561 7.99902C25.5251 8.56803 25.9593 9.24186 26.2588 10.0205C26.5732 10.8291 26.7529 11.75 26.7979 12.7832C26.8428 13.9961 26.8652 15.5609 26.8652 17.4775C26.8652 19.3942 26.8428 20.959 26.7979 22.1719C26.7529 23.2051 26.5732 24.126 26.2588 24.9346C25.9593 25.7132 25.5251 26.387 24.9561 26.9561C24.387 27.5251 23.7132 27.9593 22.9346 28.2588C22.126 28.5732 21.2051 28.7529 20.1719 28.7978C18.959 28.8428 17.3942 28.8652 15.4775 28.8652C13.5609 28.8652 11.9961 28.8428 10.7832 28.7978C9.75 28.7529 8.8291 28.5732 8.02051 28.2588C7.24186 27.9593 6.56803 27.5251 5.99902 26.9561C5.43001 26.387 4.99577 25.7132 4.69629 24.9346C4.38184 24.126 4.20215 23.2051 4.15723 22.1719C4.1123 20.959 4.08984 19.3942 4.08984 17.4775C4.08984 15.5609 4.1123 13.9961 4.15723 12.7832C4.20215 11.75 4.38184 10.8291 4.69629 10.0205C4.99577 9.24186 5.43001 8.56803 5.99902 7.99902C6.56803 7.43001 7.24186 6.99577 8.02051 6.69629C8.8291 6.38184 9.75 6.20215 10.7832 6.15723C11.9961 6.1123 13.5609 6.08984 15.4775 6.08984ZM15.4775 7.57227C13.486 7.57227 11.8613 7.59473 10.6035 7.63965C9.79492 7.6696 9.04622 7.81185 8.35742 8.06641C7.2793 8.51562 6.51562 9.2793 6.06641 10.3574C5.81185 11.0462 5.6696 11.7949 5.63965 12.6035C5.59473 13.8613 5.57227 15.486 5.57227 17.4775C5.57227 19.4691 5.59473 21.0937 5.63965 22.3516C5.6696 23.1602 5.81185 23.9089 6.06641 24.5977C6.51562 25.6758 7.2793 26.4395 8.35742 26.8887C9.04622 27.1432 9.79492 27.2855 10.6035 27.3154C11.8613 27.3603 13.486 27.3828 15.4775 27.3828C17.4691 27.3828 19.0938 27.3603 20.3516 27.3154C21.1602 27.2855 21.9089 27.1432 22.5977 26.8887C23.6758 26.4395 24.4395 25.6758 24.8887 24.5977C25.1432 23.9089 25.2855 23.1602 25.3154 22.3516C25.3604 21.0937 25.3828 19.4691 25.3828 17.4775C25.3828 15.486 25.3604 13.8613 25.3154 12.6035C25.2855 11.7949 25.1432 11.0462 24.8887 10.3574C24.4395 9.2793 23.6758 8.51562 22.5977 8.06641C21.9089 7.81185 21.1602 7.6696 20.3516 7.63965C19.0938 7.59473 17.4691 7.57227 15.4775 7.57227ZM15.4775 22.0371C16.7354 22.0371 17.8097 21.5916 18.7007 20.7007C19.5916 19.8097 20.0371 18.7354 20.0371 17.4775C20.0371 16.2197 19.5916 15.1453 18.7007 14.2544C17.8097 13.3634 16.7354 12.918 15.4775 12.918C14.2197 12.918 13.1453 13.3634 12.2544 14.2544C11.3634 15.1453 10.918 16.2197 10.918 17.4775C10.918 18.7354 11.3634 19.8097 12.2544 20.7007C13.1453 21.5916 14.2197 22.0371 15.4775 22.0371ZM15.4775 11.6377C17.0947 11.6377 18.4723 12.2067 19.6104 13.3447C20.7484 14.4827 21.3174 15.8604 21.3174 17.4775C21.3174 19.0947 20.7484 20.4723 19.6104 21.6104C18.4723 22.7484 17.0947 23.3174 15.4775 23.3174C13.8604 23.3174 12.4827 22.7484 11.3447 21.6104C10.2067 20.4723 9.6377 19.0947 9.6377 17.4775C9.6377 15.8604 10.2067 14.4827 11.3447 13.3447C12.4827 12.2067 13.8604 11.6377 15.4775 11.6377ZM22.9346 11.4131C22.9346 11.7874 22.7998 12.1056 22.5303 12.3677C22.2607 12.6297 21.9313 12.7607 21.542 12.7607C21.1676 12.7607 20.8494 12.6297 20.5874 12.3677C20.3254 12.1056 20.1943 11.7874 20.1943 11.4131C20.1943 11.0238 20.3254 10.6943 20.5874 10.4248C20.8494 10.1553 21.1676 10.0205 21.542 10.0205C21.9163 10.0205 22.242 10.159 22.519 10.436C22.7961 10.7131 22.9346 11.0387 22.9346 11.4131Z" />
</svg>
